#!OML:ASF I:\Actors\actors\Patient Classification 2\Patient 1\Session 1\actor1.ASF
:FULLY-SPECIFIED
:DEGREES
951
root -1.06341 18.1013 5.72193 -1.85383 -3.97184 -4.5111
lowerback 3.34455 0.258849 3.72484
upperback -0.156067 0.530997 1.88169
thorax -2.02083 0.234934 -0.181611
lowerneck -12.4859 -0.898913 -1.05846
upperneck 16.0905 -1.34212 1.76787
head 6.99744 -0.554117 0.616784
rclavicle -4.09062e-015 1.05356e-014
rhumerus -51.2745 -11.457 -80.2527
rradius 43.7841
rwrist 14.3169
rhand -6.64857 -29.0234
rfingers 7.12502
rthumb 19.2088 -58.0948
lclavicle -4.09062e-015 1.05356e-014
lhumerus -41.2062 1.23434 92.3244
lradius 40.702
lwrist -7.71735
lhand -3.39638 -22.7433
lfingers 7.12502
lthumb 22.3335 5.9859
rfemur 0 0 0
rtibia 0
rfoot 0 0
rtoes 0
lfemur 20.2835 -7.67425 -12.7274
ltibia -18.0875
lfoot -5.04798 22.0024
ltoes -8.24549
952
root -1.06381 18.1015 5.71463 -1.82604 -4.06326 -4.4767
lowerback 3.25171 0.289594 3.75072
upperback -0.113519 0.565855 1.85925
thorax -1.92338 0.253734 -0.220176
lowerneck -12.3946 -0.866364 -0.956384
upperneck 16.0434 -1.3177 1.76735
head 6.96521 -0.53689 0.60239
rclavicle -1.46883e-014 2.36554e-014
rhumerus -50.7898 -10.0933 -81.5026
rradius 44.1279
rwrist 14.5238
rhand -6.00012 -28.2282
rfingers 7.12502
rthumb 19.8322 -57.2364
lclavicle -1.46883e-014 2.36554e-014
lhumerus -41.4923 1.36244 92.0926
lradius 40.4652
lwrist -8.2095
lhand -3.60308 -23.109
lfingers 7.12502
lthumb 22.1351 5.64385
rfemur 0 0 0
rtibia 0
rfoot 0 0
rtoes 0
lfemur 20.2135 -7.56693 -12.7424
ltibia -18.0342
lfoot -5.09202 21.9658
ltoes -8.04331
953
root -1.06417 18.1021 5.70777 -1.80488 -4.14023 -4.44457
lowerback 3.17299 0.314477 3.75162
upperback -0.0459139 0.59208 1.85417
thorax -1.80875 0.269065 -0.226446
lowerneck -12.4385 -0.848351 -0.86152
upperneck 16.0424 -1.31084 1.76262
head 6.97185 -0.527986 0.585745
rclavicle -3.15881e-015 -8.74653e-015
rhumerus -50.2734 -8.77254 -82.6324
rradius 44.4637
rwrist 14.4755
rhand -6.04291 -26.9345
rfingers 7.12502
rthumb 19.7911 -55.9469
lclavicle -3.15881e-015 -8.74653e-015
lhumerus -41.6798 1.54976 91.878
lradius 40.2287
lwrist -8.68275
lhand -3.67711 -23.5126
lfingers 7.12502
lthumb 22.064 5.24863
rfemur 0 0 0
rtibia 0
rfoot 0 0
rtoes 0
lfemur 20.1509 -7.41668 -12.7477
ltibia -17.9767
lfoot -5.05796 21.8863
ltoes -7.93931
954
root -1.06448 18.1042 5.70148 -1.78371 -4.17177 -4.42334
lowerback 3.11161 0.325008 3.76949
upperback 0.00990628 0.601423 1.8624
thorax -1.71651 0.275454 -0.227823
lowerneck -12.4706 -0.857078 -0.814073
upperneck 16.0338 -1.3315 1.76005
head 6.97469 -0.535112 0.574996
rclavicle 5.23518e-015 5.1684e-015
rhumerus -49.822 -7.49551 -83.6348
rradius 44.8604
rwrist 14.135
rhand -6.70643 -26.19
rfingers 7.12502
rthumb 19.1531 -55.2669
lclavicle 5.23518e-015 5.1684e-015
lhumerus -41.8034 1.83489 91.6655
lradius 39.9315
lwrist -9.20099
lhand -3.72247 -23.9086
lfingers 7.12502
lthumb 22.0204 4.85777
rfemur 0 0 0
rtibia 0
rfoot 0 0
rtoes 0
lfemur 20.0721 -7.27036 -12.7403
ltibia -17.8989
lfoot -4.97561 21.7767
ltoes -8.29853
955
root -1.06513 18.1057 5.69623 -1.79388 -4.19447 -4.37406
lowerback 3.08148 0.339184 3.76352
upperback 0.0574312 0.616633 1.86246
thorax -1.6503 0.284495 -0.224743
lowerneck -12.4753 -0.886237 -0.842725
upperneck 16.0302 -1.37182 1.79448
head 6.97536 -0.553163 0.586949
rclavicle 6.34403e-015 6.16232e-015
rhumerus -49.4197 -6.272 -84.5506
rradius 45.1449
rwrist 14.0072
rhand -7.73979 -25.5762
rfingers 7.12502
rthumb 18.1592 -54.7485
lclavicle 6.34403e-015 6.16232e-015
lhumerus -41.9632 2.13959 91.4555
lradius 39.6893
lwrist -9.70498
lhand -3.85901 -24.2276
lfingers 7.12502
lthumb 21.8893 4.55415
rfemur 0 0 0
rtibia 0
rfoot 0 0
rtoes 0
lfemur 20.0274 -7.24192 -12.7874
ltibia -17.8222
lfoot -4.9965 21.7414
ltoes -8.49682
956
root -1.06645 18.1062 5.69215 -1.81109 -4.2442 -4.31897
lowerback 3.05542 0.363675 3.72793
upperback 0.0920058 0.645371 1.86831
thorax -1.59967 0.30018 -0.199796
lowerneck -12.4529 -0.930252 -0.91815
upperneck 16.0334 -1.42586 1.84266
head 6.97412 -0.579573 0.609829
rclavicle 5.43862e-015 -2.38542e-014
rhumerus -49.0446 -5.18263 -85.2601
rradius 45.3044
rwrist 15.0155
rhand -8.03011 -25.1199
rfingers 7.12502
rthumb 17.8799 -54.318
lclavicle 5.43862e-015 -2.38542e-014
lhumerus -42.2242 2.33483 91.2967
lradius 39.5876
lwrist -9.98567
lhand -4.02403 -24.4299
lfingers 7.12502
lthumb 21.7309 4.37031
rfemur 0 0 0
rtibia 0
rfoot 0 0
rtoes 0
lfemur 20.0083 -7.2976 -12.8595
ltibia -17.7438
lfoot -5.11218 21.8106
ltoes -8.33703
957
root -1.06717 18.1071 5.6881 -1.80111 -4.27332 -4.26732
lowerback 2.99927 0.36063 3.67595
upperback 0.119275 0.635737 1.88569
thorax -1.54118 0.296888 -0.151993
lowerneck -12.4116 -0.944881 -0.900383
upperneck 16.0211 -1.43681 1.77248
head 6.96242 -0.59028 0.58329
rclavicle -1.0576e-014 1.51076e-014
rhumerus -48.6219 -4.27354 -85.7807
rradius 45.3596
rwrist 15.7318
rhand -7.93923 -25.1501
rfingers 7.12502
rthumb 17.9673 -54.3402
lclavicle -1.0576e-014 1.51076e-014
lhumerus -42.5045 2.58981 91.117
lradius 39.5451
lwrist -10.1942
lhand -4.03499 -24.6658
lfingers 7.12502
lthumb 21.7204 4.13562
rfemur 0 0 0
rtibia 0
rfoot 0 0
rtoes 0
lfemur 19.9564 -7.29085 -12.9133
ltibia -17.6571
lfoot -5.20131 21.8266
ltoes -8.2013
958
root -1.06674 18.1071 5.68337 -1.80714 -4.2409 -4.1931
lowerback 2.95057 0.339947 3.60687
upperback 0.15725 0.601996 1.89584
thorax -1.47662 0.281793 -0.101108
lowerneck -12.3626 -0.949661 -0.805466
upperneck 16.0045 -1.43471 1.61982
head 6.9466 -0.597348 0.518692
rclavicle 9.22174e-015 1.90833e-014
rhumerus -48.1565 -3.55809 -86.1936
rradius 45.3693
rwrist 15.6286
rhand -8.08362 -25.2437
rfingers 7.12502
rthumb 17.8284 -54.4465
lclavicle 9.22174e-015 1.90833e-014
lhumerus -42.7167 2.89354 90.9341
lradius 39.478
lwrist -10.4368
lhand -3.99396 -24.9304
lfingers 7.12502
lthumb 21.7598 3.86649
rfemur 0 0 0
rtibia 0
rfoot 0 0
rtoes 0
lfemur 19.901 -7.23625 -12.9817
ltibia -17.5769
lfoot -5.21868 21.747
ltoes -8.07687
959
root -1.06663 18.1064 5.67897 -1.84968 -4.18828 -4.11491
lowerback 2.9254 0.343683 3.53327
upperback 0.211193 0.601355 1.90441
thorax -1.40792 0.283365 -0.0508299
lowerneck -12.3499 -0.984243 -0.811189
upperneck 16.0027 -1.47423 1.58291
head 6.94407 -0.620006 0.503975
rclavicle -2.18042e-015 2.82274e-014
rhumerus -47.7222 -3.03677 -86.4898
rradius 45.5065
rwrist 15.635
rhand -8.12069 -25.1362
rfingers 7.12502
rthumb 17.7927 -54.3422
lclavicle -2.18042e-015 2.82274e-014
lhumerus -42.8438 3.11816 90.8166
lradius 39.3607
lwrist -10.6823
lhand -4.05586 -25.1965
lfingers 7.12502
lthumb 21.7003 3.60731
rfemur 0 0 0
rtibia 0
rfoot 0 0
rtoes 0
lfemur 19.8761 -7.2325 -13.0669
ltibia -17.4977
lfoot -5.22739 21.6871
ltoes -7.98694
960
root -1.06713 18.1057 5.67652 -1.89422 -4.16116 -4.04869
lowerback 2.88618 0.364365 3.4647
upperback 0.258711 0.623039 1.91196
thorax -1.33733 0.29594 -0.00519037
lowerneck -12.3756 -1.02477 -0.858571
upperneck 16.0452 -1.52465 1.60439
head 6.96348 -0.644877 0.513772
rclavicle -3.46786e-015 7.15625e-015
rhumerus -47.324 -2.74882 -86.6439
rradius 45.5934
rwrist 15.7704
rhand -8.13895 -24.9625
rfingers 7.12502
rthumb 17.7751 -54.1701
lclavicle -3.46786e-015 7.15625e-015
lhumerus -42.9545 3.25476 90.7245
lradius 39.2583
lwrist -10.8562
lhand -4.08672 -25.4098
lfingers 7.12502
lthumb 21.6707 3.39736
rfemur 0 0 0
rtibia 0
rfoot 0 0
rtoes 0
lfemur 19.8691 -7.32344 -13.1567
ltibia -17.4234
lfoot -5.30847 21.7245
ltoes -7.88423
961
root -1.06759 18.1053 5.67436 -1.92073 -4.13611 -3.99112
lowerback 2.82796 0.387086 3.39628
upperback 0.288956 0.647209 1.91921
thorax -1.27385 0.309458 0.0401096
lowerneck -12.3924 -1.06305 -0.819429
upperneck 16.1467 -1.57386 1.53527
head 6.99901 -0.671723 0.48013
rclavicle -3.75827e-015 -2.60408e-014
rhumerus -46.9724 -2.63849 -86.6812
rradius 45.5712
rwrist 15.8925
rhand -8.23958 -24.8553
rfingers 7.12502
rthumb 17.6783 -54.0717
lclavicle -3.75827e-015 -2.60408e-014
lhumerus -43.0965 3.29223 90.6696
lradius 39.244
lwrist -10.8989
lhand -3.97657 -25.4893
lfingers 7.12502
lthumb 21.7765 3.30563
rfemur 0 0 0
rtibia 0
rfoot 0 0
rtoes 0
lfemur 19.8535 -7.41467 -13.2349
ltibia -17.3697
lfoot -5.38735 21.7812
ltoes -7.6649
962
root -1.06739 18.106 5.67079 -1.93431 -4.08296 -3.9814
lowerback 2.78158 0.403182 3.37688
upperback 0.310997 0.665234 1.94218
thorax -1.22528 0.319389 0.0743013
lowerneck -12.3341 -1.0956 -0.846528
upperneck 16.1806 -1.61907 1.56409
head 7.00077 -0.692683 0.489816
rclavicle -2.67583e-015 -2.5842e-015
rhumerus -46.6514 -2.50854 -86.6928
rradius 45.5146
rwrist 15.7278
rhand -8.33548 -25.203
rfingers 7.12502
rthumb 17.586 -54.4276
lclavicle -2.67583e-015 -2.5842e-015
lhumerus -43.1918 3.27883 90.6697
lradius 39.2058
lwrist -10.8964
lhand -3.92641 -25.5733
lfingers 7.12502
lthumb 21.8246 3.216
rfemur 0 0 0
rtibia 0
rfoot 0 0
rtoes 0
lfemur 19.8192 -7.42034 -13.2403
ltibia -17.3275
lfoot -5.38591 21.7551
ltoes -7.44786
963
root -1.06659 18.1066 5.66721 -1.93768 -4.00297 -3.98787
lowerback 2.72975 0.411172 3.38157
upperback 0.339136 0.672681 1.96516
thorax -1.16739 0.324069 0.0955337
lowerneck -12.2444 -1.10902 -0.974732
upperneck 16.1283 -1.64768 1.76324
head 6.97134 -0.697332 0.573022
rclavicle 3.71168e-016 -2.38542e-014
rhumerus -46.2817 -2.39224 -86.6618
rradius 45.3162
rwrist 15.3909
rhand -8.27492 -25.6354
rfingers 7.12502
rthumb 17.6443 -54.8548
lclavicle 3.71168e-016 -2.38542e-014
lhumerus -43.2491 3.23141 90.6964
lradius 39.1727
lwrist -10.8711
lhand -4.019 -25.6279
lfingers 7.12502
lthumb 21.7357 3.17181
rfemur 0 0 0
rtibia 0
rfoot 0 0
rtoes 0
lfemur 19.7649 -7.38839 -13.2178
ltibia -17.2858
lfoot -5.3211 21.6571
ltoes -7.59029
964
root -1.06641 18.1066 5.66437 -1.95145 -3.90295 -3.95566
lowerback 2.67547 0.417632 3.32429
upperback 0.372081 0.675922 1.98263
thorax -1.10394 0.327005 0.14593
lowerneck -12.173 -1.13278 -1.08351
upperneck 16.1059 -1.69208 1.94768
head 6.95482 -0.709534 0.64664
rclavicle 8.31013e-015 1.70955e-014
rhumerus -45.898 -2.35241 -86.5596
rradius 45.0669
rwrist 15.3383
rhand -8.14858 -25.627
rfingers 7.12502
rthumb 17.7659 -54.8354
lclavicle 8.31013e-015 1.70955e-014
lhumerus -43.2626 3.21033 90.7127
lradius 39.1218
lwrist -10.8944
lhand -4.09952 -25.6614
lfingers 7.12502
lthumb 21.6584 3.14721
rfemur 0 0 0
rtibia 0
rfoot 0 0
rtoes 0
lfemur 19.7233 -7.3914 -13.2441
ltibia -17.2535
lfoot -5.26749 21.5588
ltoes -7.90376
965
root -1.06665 18.107 5.66149 -1.9944 -3.79889 -3.89911
lowerback 2.66094 0.423568 3.21676
upperback 0.402866 0.679223 2.0057
thorax -1.06566 0.329807 0.229816
lowerneck -12.1266 -1.17505 -1.16216
upperneck 16.1449 -1.75291 2.04383
head 6.96188 -0.735175 0.685091
rclavicle -2.68825e-015 -2.26615e-014
rhumerus -45.5369 -2.29123 -86.4391
rradius 44.828
rwrist 15.4925
rhand -8.22655 -25.6554
rfingers 7.12502
rthumb 17.6908 -54.8706
lclavicle -2.68825e-015 -2.26615e-014
lhumerus -43.2187 3.22429 90.7207
lradius 39.0429
lwrist -10.9618
lhand -4.04192 -25.759
lfingers 7.12502
lthumb 21.7137 3.0432
rfemur 0 0 0
rtibia 0
rfoot 0 0
rtoes 0
lfemur 19.7167 -7.39703 -13.3001
ltibia -17.2268
lfoot -5.23106 21.4648
ltoes -8.00124
966
root -1.0667 18.1076 5.65769 -2.048 -3.70145 -3.82398
lowerback 2.67575 0.446722 3.11141
upperback 0.432754 0.706855 2.01354
thorax -1.04412 0.344475 0.29577
lowerneck -12.1321 -1.22291 -1.24747
upperneck 16.2136 -1.82111 2.1442
head 6.98794 -0.763884 0.725091
rclavicle -3.74119e-015 -6.95746e-015
rhumerus -45.182 -2.20516 -86.3266
rradius 44.5374
rwrist 15.6729
rhand -8.51804 -25.7845
rfingers 7.12502
rthumb 17.4103 -55.0248
lclavicle -3.74119e-015 -6.95746e-015
lhumerus -43.2064 3.12458 90.7803
lradius 39.0876
lwrist -10.9138
lhand -3.90021 -25.825
lfingers 7.12502
lthumb 21.8498 2.96143
rfemur 0 0 0
rtibia 0
rfoot 0 0
rtoes 0
lfemur 19.7107 -7.37152 -13.3733
ltibia -17.1879
lfoot -5.16556 21.3542
ltoes -8.08775
